<svg width="58" height="56" viewBox="0 0 58 56" fill="none" xmlns="http://www.w3.org/2000/svg">
<path d="M29 54C14.1 54 2 41.9 2 27C2 12.1 14.1 0 29 0C43.9 0 56 12.1 56 27C56 41.9 43.9 54 29 54Z" fill="#43D854"/>
<path fill-rule="evenodd" clip-rule="evenodd" d="M41.4 26.9C41.4 33.8 35.9 39.3 29 39.3C27 39.3 25 38.8 23.1 37.8L20.2 35.9L18.3 33.1C15.5 28.3 16.3 22.1 20.3 18.1C25.1 13.3 33 13.3 37.9 18.1C40.1 20.5 41.5 23.6 41.4 26.9ZM37.8 21.4C34.8 16.6 28.5 15 23.6 18.1C18.7 21.3 17.2 27.5 20.2 32.5L20.5 32.9L21.5 34L23.4 35.6L23.7 35.9C25.4 36.8 27.1 37.3 29 37.3C31 37.3 32.9 36.6 34.5 35.6C39.4 32.6 40.8 26.3 37.8 21.4ZM35.3 29.7C35.4 30.2 35.4 30.7 35.1 31.2C34.6 32 33.9 32.6 33 32.7C32.3 32.9 31.6 32.9 31 32.6C30.4 32.5 29.9 32.2 29.3 32C27.1 31 25.4 29.4 24 27.4C23.2 26.4 22.9 25.2 22.7 24.1C22.7 23.1 23.1 22.2333 23.9 21.5C24 21.4 24.4 21.1 24.6 21.1H25.3C25.5 21.1 25.8 21.1 25.9 22C26.1 22.6 26.8 24.1 26.9 24.2C27 24.4 27 24.6 26.9 24.7C26.9 24.9 26.8 25.1 26.6 25.2C26.4 25.4 26.3 25.6 26.1 25.7C26 25.9 25.9 26.1 26 26.4C26.5 27.1 27.1 27.9 27.8 28.5C28.5 29.1 29.4 29.6 30.3 30C30.5 30.1 30.8 30.1 30.9 29.9C31.1 29.6 31.6 28.9 31.9 28.6C32.1 28.4 32.4 28.4 32.6 28.5C32.9 28.6 34.5 29.4 34.8 29.5L35.3 29.7Z" fill="white"/>
</svg>
