<svg width="172" height="268" viewBox="0 0 172 268" fill="none" xmlns="http://www.w3.org/2000/svg">
<path d="M76 265C62.7 262.5 60.5 261.8 51.4 257.3C32.6 248 18.9 234.1 10.5 215.6C4.1 201.7 0.5 183.8 1.2 169.2C1.7 158.1 3.8 152.6 8 151.2C12.6 149.6 15.5 152.1 19.9 161.4C29.5 181.9 41.6 196.1 55.4 202.8C78.6 214.1 100.4 202.8 107.6 175.9C110.7 164.2 109.1 142.6 104.1 127.5C103 124.2 102 120.3 102 118.9C102 115.8 98.2 112 95.1 112C88.6 112 86.6 115.9 80.6 141.2C78 152 75.2 161.4 74.4 162.1C73.6 162.7 73 163.8 73 164.5C73 165.2 70.9 167.2 68.4 168.8C62.2 173 55.2 173.8 46 171.5C45.2 171.3 44.1 171.1 43.5 171.1C43 171 41.8 170.5 41 170C39.8 169.3 39.9 168.7 42 166.5C45 163.3 47.7 158.8 53.5 147.5C58 138.6 59 135.1 67.5 98.3C68.9 92.2 70.6 86.1 71.3 84.8C73.6 80.3 79.2 73.9 82.2 72.4C85.1 70.9 85.1 70.9 80.8 66.7C72.3 58.4 68.3 48 69.3 36.4C70.1 25.6 77.5 13.1 86.7 6.69998C91.5 3.39998 104.4 0.399984 107.5 1.89998C108.6 2.39998 111.3 3.19998 113.5 3.49998C120.5 4.69998 128.5 9.39998 135.2 16.4C140.4 21.9 144.2 35.9 142.8 45C141.2 55.3 134.3 66 125.7 71.5C122.9 73.3 122.9 73.5 123.5 79.4C123.9 82.8 125.6 88.7 127.3 92.5C130.4 99.5 143.4 120.2 145.1 120.8C145.6 121 146 121.6 146 122.1C146 122.6 148.4 127 151.4 131.8C168.8 159.9 174.5 189.5 167.7 216.7C165 227.4 151.5 245.4 140.7 252.6C123.6 264.1 97.9 269 76 265ZM104.3 260C116.5 258.8 126.8 255.2 137.5 248.4C151.7 239.5 162.9 222.1 164.6 206.6C164.9 203.8 165.3 200.5 165.5 199.3C166.2 196.2 164.3 179.5 162.5 172.5C158.5 157.2 150.2 139.8 137.8 120.9C133.7 114.6 129 107 127.3 103.9C124.1 98.1 119.7 83 119.6 77.5C119.5 74.8 119 74.3 116.2 74.9C115.7 74.9 115.6 77.6 115.8 80.9C116.4 89.3 114 96.8 108.3 103.7C103.3 109.8 103.3 109.3 107.3 119C107.9 120.4 108.4 121.7 108.5 122C108.5 122.3 109.1 124.1 109.8 126C110.4 127.9 111.2 130.6 111.4 132C111.7 133.4 111.9 134.5 112 134.5C112.1 134.5 112.3 135.4 112.4 136.5C112.6 137.6 113.3 142.3 114 146.9C115.7 158.2 114.8 174.5 112 183.5C106.9 199.6 95.3 210.7 80.9 212.9C74.2 214 65.8 213.1 60.1 210.8C58.7 210.2 57.3 209.6 57 209.5C49.6 207 37.7 197.8 31.2 189.5C28.7 186.2 26.2 183.4 25.8 183.2C25.3 183 25 182.2 25 181.4C25 180.6 24.6 180 24 180C23.5 180 23 179.6 23 179.1C23 177.9 15.2 164.1 13.2 161.8C11.3 159.6 8.4 159.5 7.6 161.6C6.5 164.5 7 176.9 8.6 186.8C11.3 203.7 17.3 217.7 27.4 230.7C31.4 235.9 44 247 45.8 247C46.3 247 47.5 247.9 48.5 249C49.5 250.1 50.8 251 51.4 251C52 251 53.7 251.6 55.2 252.4C58 253.9 68.8 258.1 69.3 257.8C69.4 257.8 70.5 258 71.7 258.4C78.8 260.6 92.1 261.3 104.3 260ZM59.6 166.4C65.7 163.5 72.5 153.5 74.5 144.5C74.7 143.4 75.6 139.9 76.3 136.7C77.1 133.5 77.7 130.8 77.7 130.7C77.6 130.1 80.3 122.1 81.6 119.3C82.4 117.6 83 115.8 83 115.3C83.1 114.3 87.7 109 88.6 109C90.1 109 101.6 102.7 103.9 100.7C107.8 97.1 110.1 90.8 109.4 85.9C108.3 79.2 103.7 75.8 94.5 74.7C92.3 74.5 85.6 76.2 83.4 77.7C81.1 79.1 76.9 86.9 75.5 92C75.2 93.4 74.4 96.1 73.9 98C73.4 99.9 72.7 102.4 72.5 103.5C72.1 105.2 67.1 124.4 65.6 130.2C64.6 134.1 60.6 144.6 59.7 145.8C59.2 146.4 59.1 147 59.5 147C60 147 59.7 147.8 58.9 148.8C58.1 149.7 56.6 152.1 55.6 154C54.5 155.9 52 159.5 49.9 161.9C47.8 164.4 46.3 166.8 46.6 167.2C47.5 168.6 56.1 168.1 59.6 166.4ZM116.8 69.5C129.9 65.8 139.2 52.7 138.6 38.8C138.2 30 136.6 24.9 132.1 19C125.4 9.99998 114.3 5.49998 100.1 5.99998C97.5 6.09998 94.5 6.89998 92.9 8.09998C91.4 9.09998 89.6 9.99998 88.8 9.99998C88.1 10.1 86.4 11.5 85 13.1C83.6 14.8 81.7 17.1 80.8 18.2C77.8 21.7 75.1 28.3 74.2 34.2C71.9 49.3 82.4 66.2 96.2 69.7C99.9 70.6 108.4 71.7 109.6 71.5C110.1 71.3 113.4 70.4 116.8 69.5Z" fill="#FEFEFE"/>
<path d="M90.3 97C87.5 95.9 85.8 92.7 85.7 88.2C85.5 81 95.3 77.2 100.5 82.5C104.8 86.7 103.6 93.6 98 96.5C94.7 98.2 93.5 98.3 90.3 97ZM96.1 92C97.3 91.3 98 89.9 98 88C98 85.7 97.5 84.9 95.5 84.4C92.4 83.6 90 85.4 90 88.4C90 90.6 91.7 93 93.3 93C93.7 93 95 92.5 96.1 92Z" fill="#FEFEFE"/>
<path d="M97.7 62C95.6 61.6 93.4 60.7 92.7 60C91.7 59 92 58.9 94.2 59.4C95.7 59.7 97.1 59.6 97.5 59C97.8 58.5 97 57.8 95.7 57.5C92.2 56.6 87.5 51.3 85 45.7C83.2 41.6 82.9 39.8 83.5 34.8C84.1 29.5 84 28.8 82.7 29.3C79.9 30.3 83.7 22.9 87.7 19.3C91.9 15.5 93.4 15.1 92.5 18C91.8 20.4 92.2 20.4 95.8 18.7C99.4 16.9 107.2 16.6 111.8 18.1C116.4 19.6 122.7 24.4 123.6 27.2C124 28.7 124.4 28.9 125 28C125.5 27.3 125.4 25.6 124.9 24.3C123.5 20.5 123.9 20.2 125.9 23.5C127 25.2 128.2 28.2 128.5 30.3C129.1 33.6 129 33.9 127.5 33.4C126 32.8 125.8 33.2 126.2 36.6C127.3 45 121.2 54.8 112.9 57.9C105.5 60.7 105.2 60.9 108.6 60.9C110.3 61 113.7 60.3 116.1 59.5C120 58.2 120.3 58.2 118.5 59.5C114.4 62.7 106.3 63.7 97.7 62ZM114.3 51.5C119 48.2 121.2 43.9 121.2 37.9C121.2 31.6 118.2 26.8 112.6 24.1C107.5 21.6 105.8 21.5 99.9 23.5C87.6 27.7 86.4 46.5 98.2 52.3C103.3 54.8 109.8 54.5 114.3 51.5Z" fill="#FEFEFE"/>
<path d="M80 24.6C82.1 18.9 91.9 9.49999 93.7 11.4C94 11.7 93.2 12.4 91.9 12.9C89.5 13.8 82 22.1 82 23.8C82 24.3 81.3 25.3 80.5 26C79.1 27.1 79.1 27 80 24.6Z" fill="#FEFEFE"/>
<path d="M81 254.3C68.6 252.2 53.7 245.9 44 238.7C37.1 233.5 31.5 228.2 32.2 227.4C32.6 227.1 35.9 227.6 39.6 228.6C83.8 239.7 114.8 233.4 130.2 210.1C131.2 208.7 132.3 206.8 132.6 206C133 205.2 134.1 202.7 135.1 200.5C138.9 191.8 140.3 180.6 139.8 163.3C139.5 154.3 139.6 147 139.9 147C141.2 147 150 166.9 152.7 176C155.1 184.1 155.5 187.3 155.5 197.5C155.5 204.9 155 211.2 154.1 214C147.6 235.2 132.2 248.4 108.3 253.5C102 254.9 86.8 255.3 81 254.3Z" fill="white"/>
<path d="M35.5 208.1C31.8 207.2 23.9 202.7 21.7 200.2C18.9 197.1 14.8 187.1 14.1 181.5C13.7 178.5 13.7 176 14.1 176C14.5 176 15.6 177.7 16.7 179.8C21.1 188.6 25.7 194.3 34.4 201.7C37.8 204.6 41.1 207 41.8 207C42.5 207 42.8 207.5 42.5 208C41.8 209.1 39.9 209.1 35.5 208.1Z" fill="white"/>
<path d="M55 162.4C55 162 56.5 160.1 58.4 158C61.9 154.1 68.8 141.4 71 134.7C71.6 132.5 72.6 131.2 73 131.7C73.8 132.5 72.1 142.5 70.9 144.5C70.5 145.1 69.9 146.9 69.6 148.7C69.2 150.4 68.2 152.4 67.4 153.1C66.6 153.7 66 154.6 66 155C66 156.7 60.4 161.7 57.8 162.4C56.2 162.7 55 162.7 55 162.4Z" fill="white"/>
<path d="M120.7 145.4C120.4 144.9 119.7 142.5 119 140C118.4 137.5 115.8 130 113.4 123.2C108.9 111 108.9 110.9 110.7 108.3C113.5 104.4 117 97.7 117 96.2C117 92.7 119.7 96.3 121.4 102.1C122.8 107.1 123.3 112.1 123.4 125.5C123.5 136.4 123.1 143.2 122.4 144.4C121.8 145.4 121 145.9 120.7 145.4Z" fill="white"/>
<path d="M104 67C104 66.4 103.2 66.1 102.3 66.4C100.5 66.9 93 62.4 92.3 60.4C92.1 59.8 94.3 59.3 98.2 59.3C102.3 59.2 103.8 59.4 102.5 59.9C101.1 60.5 102.3 60.8 106.3 60.8C109.8 60.9 114.1 60.2 117 59.1C121.6 57.3 121.7 57.3 121.3 59.1C121 60.2 120.2 61 119.4 61C118.7 61 117.6 61.9 117 63C115.7 65.5 113.5 66.6 108.3 67.5C105.3 68 104 67.8 104 67Z" fill="white"/>
<path d="M131.5 42.3C130.4 37.4 128.1 33 126.5 33C125.3 33 125 32.1 125.1 29.3C125.2 27.2 124.7 23.5 124.1 21.1C123.4 18.8 123.2 16.5 123.5 16.1C123.9 15.8 125.9 17.4 128 19.7C132.7 25.1 135.3 32.8 134.4 39.3C133.6 44.9 132.3 46.2 131.5 42.3Z" fill="white"/>
<path d="M78 32.2C78 31.7 78.6 29.3 79.4 26.8C81.9 18.3 89.1 11.5 95.8 11.1C99.2 11 99.2 11 95.5 14.4C93.5 16.4 92 18.5 92.2 19.2C92.5 19.9 91.6 21.3 90.2 22.4C88.9 23.5 87 26.2 86 28.4C85 30.7 84.1 31.7 84.1 30.8C84 28.4 82.3 28.5 80.8 31C79.5 33 78 33.7 78 32.2Z" fill="white"/>
</svg>
