<svg version="1.2" xmlns="http://www.w3.org/2000/svg" viewBox="0 0 56 54" width="56" height="54">
	<title>Group 16167-svg</title>
	<style>
		.s0 { fill: #43d854 } 
		.s1 { fill: #34aadf } 
		.s2 { fill: #ffffff } 
	</style>
	<path id="Layer" class="s0" d="m101 54c-14.9 0-27-12.1-27-27 0-14.9 12.1-27 27-27 14.9 0 27 12.1 27 27 0 14.9-12.1 27-27 27z"/>
	<path id="Layer" class="s1" d="m27 54c-14.9 0-27-12.1-27-27 0-14.9 12.1-27 27-27 14.9 0 27 12.1 27 27 0 14.9-12.1 27-27 27z"/>
	<path id="Layer" fill-rule="evenodd" class="s2" d="m113.4 26.9c0 6.9-5.5 12.4-12.4 12.4-2 0-4-0.5-5.9-1.5l-6.6 1.7 1.7-6.4c-2.7-4.8-2-11 2-15 4.9-4.8 12.8-4.8 17.7 0 2.2 2.4 3.6 5.5 3.5 8.8zm-3.7-5.5c-3-4.8-9.2-6.4-14.1-3.3-4.9 3.2-6.4 9.4-3.4 14.4l0.3 0.4-1 3.7 3.9-1 0.3 0.3c1.7 0.9 3.4 1.4 5.3 1.4 2 0 3.9-0.7 5.5-1.7 4.9-3 6.2-9.3 3.2-14.2zm-2.5 8.3c0.2 0.5 0.2 1-0.1 1.5-0.5 0.8-1.2 1.4-2.1 1.5-0.8 0.2-1.4 0.2-2-0.1-0.6-0.1-1.1-0.4-1.8-0.6-2.1-1-3.8-2.6-5.2-4.6-0.8-1-1.1-2.2-1.3-3.3q0-1.5 1.2-2.6c0.1-0.1 0.5-0.4 0.7-0.4h0.6c0.3 0 0.5 0 0.7 0.9 0.2 0.6 0.8 2.1 1 2.2 0.1 0.2 0.1 0.4 0 0.5 0 0.2-0.2 0.4-0.3 0.5-0.2 0.2-0.4 0.4-0.5 0.5-0.1 0.2-0.2 0.4-0.1 0.7 0.5 0.7 1.1 1.5 1.7 2.1 0.8 0.6 1.7 1.1 2.5 1.5 0.3 0.1 0.5 0.1 0.7-0.1 0.2-0.3 0.7-1 1-1.3 0.2-0.2 0.5-0.2 0.7-0.1 0.3 0.1 1.9 0.9 2.1 1z"/>
	<path id="Layer" fill-rule="evenodd" class="s2" d="m21.8 30.1l-5.9-2.5c-0.6-0.3-1-0.9-0.9-1.6 0-0.6 0.4-1.2 1-1.4 4.3-1.6 17.1-6.2 20.9-7.6 0.5-0.2 1.2-0.1 1.6 0.3 0.5 0.4 0.6 1.1 0.5 1.6-0.8 3.4-3.4 13.8-4.2 16.9-0.1 0.6-0.5 1-1.1 1.2-0.5 0.2-1.1 0-1.5-0.3l-4-3.5-3.1 3c-0.4 0.4-1.1 0.5-1.6 0.3-0.6-0.2-1-0.7-1.1-1.3zm11.2 4.5l3.8-15.3-18.9 6.8 5 2.2c0.5 0.2 0.9 0.7 0.9 1.3l0.6 4.4 2.3-2.2-0.2-0.2c-0.4-0.3-0.6-0.7-0.6-1.2 0-0.4 0.2-0.9 0.5-1.2 1.2-1.2 4.5-4.3 4.5-4.3 0.5-0.4 1.1-0.4 1.5 0 0.4 0.4 0.4 1.1 0 1.5l-4.2 4 0.7 0.6z"/>
</svg>